<?xml version="1.0" encoding="utf-8"?>
<!-- Generator: Adobe Illustrator 16.0.0, SVG Export Plug-In . SVG Version: 6.00 Build 0)  -->
<!DOCTYPE svg PUBLIC "-//W3C//DTD SVG 1.1//EN" "http://www.w3.org/Graphics/SVG/1.1/DTD/svg11.dtd">
<svg version="1.1" id="volleyball" xmlns="http://www.w3.org/2000/svg" xmlns:xlink="http://www.w3.org/1999/xlink" x="0px" y="0px"
	 width="167px" height="267px" viewBox="0 -0.5 167 267" enable-background="new 0 -0.5 167 267" xml:space="preserve">
<g id="volleyball_man">
	
		<path id="torso" fill="#FFFFFF" stroke="#000000" stroke-width="6" stroke-linecap="round" stroke-linejoin="round" stroke-miterlimit="10" d="
		M93.56,158.094c-1.395,10.223-9.452,22.928-13.941,28.809c-0.298,0.392-0.613,0.848-0.948,1.367
		c-4.554,7.164-11.486,25.287-15.781,33.021c-0.045,0.083-0.093,0.166-0.147,0.261c-5.121,8.383-35.167,22.045-35.167,22.045
		l-3.253,14.403L8.521,234.3c0,0,23.233-13.011,26.952-17.657c3.718-4.646,9.758-12.547,6.97-24.627
		c-2.788-12.082-10.223-20.912-6.041-32.529c4.182-11.616,14.87-14.868,20.91-21.375c6.043-6.506,9.276-19.646,10.68-30.502
		c1.402-10.855,1.602-27.084,1.602-27.084l-0.662-12.581l14.476-0.793l1.26,11.683c0,0,1.086,6.396,1.486,7.8
		c1.228,4.312,2.592,9.136,3.225,11.979c0.436,1.961,1.049,5.502,1.7,9.918C93.198,122.926,94.656,150.053,93.56,158.094z"/>
	
		<path id="left_leg" fill="#939598" stroke="#000000" stroke-width="6" stroke-linecap="round" stroke-linejoin="round" stroke-miterlimit="10" d="
		M91.702,258l-27.418-0.93c0,0-0.492-11.348,0-17.192c0.407-4.962-0.399-12.491-1.543-18.325c0.056-0.096,0.103-0.179,0.147-0.262
		c4.293-7.732,11.227-25.855,15.781-33.021c5.02,6.6,6.433,24.537,5.594,31.627c-0.929,7.9-4.182,25.094-4.182,25.094L91.702,258z"
		/>
	
		<path id="left_arm" fill="#939598" stroke="#000000" stroke-width="6" stroke-linecap="round" stroke-linejoin="round" stroke-miterlimit="10" d="
		M155.325,73.398c-4.303,4.682-10.65,7.558-17.62,11.274c-14.935,8.479-44.565,23.67-46.224,24.287
		c-0.596-4.574-1.155-7.746-1.555-9.779c-0.578-2.947-2.449-9.199-3.572-13.67c9.681-3.449,20.461-3.662,25.568-4.558
		c8.168-1.425,22.711-6.021,29.817-8.478c7.114-2.458,12.901-7.563,17.526-11.927C162.099,63.456,159.634,68.715,155.325,73.398z"/>
	
		<path id="right_arm" fill="#FFFFFF" stroke="#000000" stroke-width="6" stroke-linecap="round" stroke-linejoin="round" stroke-miterlimit="10" d="
		M82.833,104.5c-3,6.167-9.758,9.876-17.164,5.898c-8.653-4.646-17.128-13.355-21.218-18.18
		c-7.584-8.939-13.317-23.875-18.197-29.627c-4.889-5.744-7.992-11.05-8.438-19.898c-0.446-8.848,6.367,3.253,11.989,8.848
		c6.653,6.626,15.539,21.413,31.027,30.125C71.5,87.667,89,90.667,82.833,104.5z"/>
	
		<circle id="ball" fill="#FFFFFF" stroke="#000000" stroke-width="6" stroke-linecap="round" stroke-linejoin="round" stroke-miterlimit="10" cx="141.421" cy="21.011" r="13.011"/>
	
		<circle id="head" fill="#FFFFFF" stroke="#000000" stroke-width="6" stroke-linecap="round" stroke-linejoin="round" stroke-miterlimit="10" cx="73.113" cy="42.386" r="17.658"/>
</g>
</svg>
